<?xml version="1.0" encoding="UTF-8" standalone="no"?>
<svg
   xmlns:dc="http://purl.org/dc/elements/1.1/"
   xmlns:cc="http://creativecommons.org/ns#"
   xmlns:rdf="http://www.w3.org/1999/02/22-rdf-syntax-ns#"
   xmlns:svg="http://www.w3.org/2000/svg"
   xmlns="http://www.w3.org/2000/svg"
   xmlns:sodipodi="http://sodipodi.sourceforge.net/DTD/sodipodi-0.dtd"
   xmlns:inkscape="http://www.inkscape.org/namespaces/inkscape"
   version="1.1"
   id="Layer_1"
   x="0px"
   y="0px"
   viewBox="0 0 512 512"
   style="enable-background:new 0 0 512 512;"
   xml:space="preserve"
   sodipodi:docname="fbook.svg"
   inkscape:version="1.0.1 (3bc2e813f5, 2020-09-07)"><style
   id="style840"></style><metadata
   id="metadata15"><rdf:RDF><cc:Work
       rdf:about=""><dc:format>image/svg+xml</dc:format><dc:type
         rdf:resource="http://purl.org/dc/dcmitype/StillImage" /></cc:Work></rdf:RDF></metadata><defs
   id="defs13" /><sodipodi:namedview
   pagecolor="#ffffff"
   bordercolor="#666666"
   borderopacity="1"
   objecttolerance="10"
   gridtolerance="10"
   guidetolerance="10"
   inkscape:pageopacity="0"
   inkscape:pageshadow="2"
   inkscape:window-width="1920"
   inkscape:window-height="1016"
   id="namedview11"
   showgrid="false"
   inkscape:zoom="0.60352669"
   inkscape:cx="50.962296"
   inkscape:cy="223.24481"
   inkscape:window-x="0"
   inkscape:window-y="27"
   inkscape:window-maximized="1"
   inkscape:current-layer="Layer_1" />
<g
   id="g8"
   style="fill:#fffffb;fill-opacity:1">
	<title
   id="title2">facebook</title>
	<g
   id="g6"
   style="fill:#fffffb;fill-opacity:1">
		<path
   d="M481,258.1c0-124.3-100.8-225-225-225c-124.3,0-225,100.7-225,225c0,112.3,82.3,205.4,189.8,222.2V323.1h-57.1v-65h57.1    v-49.6c0-56.4,33.5-87.5,85-87.5c24.6,0,50.4,4.4,50.4,4.4v55.4h-28.4c-27.9,0-36.6,17.4-36.6,35.2v42.2h62.4l-10,65h-52.4v157.2    C398.7,463.4,481,370.3,481,258.1L481,258.1z"
   id="path4"
   style="fill:#fffffb;fill-opacity:1" />
	</g>
</g>
</svg>
