<?xml version="1.0" encoding="UTF-8" standalone="no"?>
<svg
   xmlns:dc="http://purl.org/dc/elements/1.1/"
   xmlns:cc="http://creativecommons.org/ns#"
   xmlns:rdf="http://www.w3.org/1999/02/22-rdf-syntax-ns#"
   xmlns:svg="http://www.w3.org/2000/svg"
   xmlns="http://www.w3.org/2000/svg"
   xmlns:sodipodi="http://sodipodi.sourceforge.net/DTD/sodipodi-0.dtd"
   xmlns:inkscape="http://www.inkscape.org/namespaces/inkscape"
   version="1.1"
   id="Layer_1"
   x="0px"
   y="0px"
   viewBox="0 0 512 512"
   style="enable-background:new 0 0 512 512;"
   xml:space="preserve"
   sodipodi:docname="github.svg"
   inkscape:version="1.0.1 (3bc2e813f5, 2020-09-07)"><style
   id="style836"></style><metadata
   id="metadata11"><rdf:RDF><cc:Work
       rdf:about=""><dc:format>image/svg+xml</dc:format><dc:type
         rdf:resource="http://purl.org/dc/dcmitype/StillImage" /><dc:title></dc:title></cc:Work></rdf:RDF></metadata><defs
   id="defs9" /><sodipodi:namedview
   pagecolor="#ffffff"
   bordercolor="#666666"
   borderopacity="1"
   objecttolerance="10"
   gridtolerance="10"
   guidetolerance="10"
   inkscape:pageopacity="0"
   inkscape:pageshadow="2"
   inkscape:window-width="1920"
   inkscape:window-height="1016"
   id="namedview7"
   showgrid="false"
   inkscape:zoom="1.7070312"
   inkscape:cx="256"
   inkscape:cy="256"
   inkscape:window-x="0"
   inkscape:window-y="27"
   inkscape:window-maximized="1"
   inkscape:current-layer="Layer_1" />
<g
   id="g4"
   style="fill:#fffffe;fill-opacity:1">
	<path
   d="M256,36.6c-124.2,0-225,100.7-225,225c0,99.4,64.5,183.7,153.9,213.5c11.2,2.1,15.4-4.9,15.4-10.8c0-5.4-0.2-23.1-0.3-41.9   c-62.6,13.6-75.8-26.5-75.8-26.5c-10.2-26-25-32.9-25-32.9c-20.4-14,1.5-13.7,1.5-13.7c22.6,1.6,34.5,23.2,34.5,23.2   c20.1,34.4,52.6,24.4,65.5,18.7c2-14.5,7.8-24.5,14.3-30.1c-50-5.7-102.5-25-102.5-111.2c0-24.6,8.8-44.6,23.2-60.4   c-2.3-5.7-10-28.5,2.2-59.5c0,0,18.9-6,61.9,23.1c17.9-5,37.2-7.5,56.3-7.6c19.1,0.1,38.4,2.6,56.4,7.6   c42.9-29.1,61.8-23.1,61.8-23.1c12.2,31,4.6,53.9,2.2,59.5c14.4,15.7,23.1,35.8,23.1,60.4c0,86.4-52.6,105.4-102.7,111   c8.1,7,15.3,20.7,15.3,41.7c0,30.1-0.3,54.3-0.3,61.7c0,6,4,13,15.5,10.8C416.6,445.2,481,360.9,481,261.5   C481,137.3,380.3,36.5,256,36.6L256,36.6z"
   id="path2"
   style="fill:#fffffe;fill-opacity:1" />
</g>
</svg>
