<?xml version="1.0" encoding="UTF-8" standalone="no"?>
<svg
   xmlns:dc="http://purl.org/dc/elements/1.1/"
   xmlns:cc="http://creativecommons.org/ns#"
   xmlns:rdf="http://www.w3.org/1999/02/22-rdf-syntax-ns#"
   xmlns:svg="http://www.w3.org/2000/svg"
   xmlns="http://www.w3.org/2000/svg"
   xmlns:sodipodi="http://sodipodi.sourceforge.net/DTD/sodipodi-0.dtd"
   xmlns:inkscape="http://www.inkscape.org/namespaces/inkscape"
   version="1.1"
   id="Layer_1"
   x="0px"
   y="0px"
   viewBox="0 0 512 512"
   style="enable-background:new 0 0 512 512;"
   xml:space="preserve"
   sodipodi:docname="tweet.svg"
   inkscape:version="1.0.1 (3bc2e813f5, 2020-09-07)"><metadata
   id="metadata15"><rdf:RDF><cc:Work
       rdf:about=""><dc:format>image/svg+xml</dc:format><dc:type
         rdf:resource="http://purl.org/dc/dcmitype/StillImage" /><dc:title>01</dc:title></cc:Work></rdf:RDF></metadata><defs
   id="defs13" /><sodipodi:namedview
   pagecolor="#ffffff"
   bordercolor="#666666"
   borderopacity="1"
   objecttolerance="10"
   gridtolerance="10"
   guidetolerance="10"
   inkscape:pageopacity="0"
   inkscape:pageshadow="2"
   inkscape:window-width="1920"
   inkscape:window-height="1016"
   id="namedview11"
   showgrid="false"
   inkscape:zoom="1.2070534"
   inkscape:cx="234.88933"
   inkscape:cy="287.05938"
   inkscape:window-x="0"
   inkscape:window-y="27"
   inkscape:window-maximized="1"
   inkscape:current-layer="Layer_1" />
<style
   type="text/css"
   id="style2">
	.st0{fill:#010101;}
</style>
<title
   id="title4">01</title>
<g
   id="g8"
   transform="matrix(0.9,0,0,0.9,25.6,25.6)"
   style="fill:#ffffff;fill-opacity:1">
	<path
   class="st0"
   d="M 256,6 C 118.2,6 6,118.2 6,256 6,393.8 118.2,506 256,506 393.8,506 506,393.9 506,256 506,118.1 393.9,6 256,6 Z m 144.8,158.8 v 0.3 c 0.1,1.7 -0.4,3.3 -1.4,4.6 -6.8,9.2 -14.1,17.4 -23.2,24.2 -1.3,1 -3.5,2 -3.5,3.9 0,48.1 -12.3,96.2 -47.4,131.1 -44.7,44.4 -111.8,56.5 -171.3,40 -11.5,-3.2 -22.6,-7.6 -33.2,-13.2 -3.5,-1.9 -6.9,-3.9 -10.3,-6.1 -0.9,-0.7 -1.5,-1.4 -0.8,-1.8 0.7,-0.4 1.3,-0.4 3.9,0 16.8,1.5 33.7,-0.7 49.5,-6.3 8.6,-3 27.3,-9.1 32.6,-17.3 0.1,-0.2 0.2,-0.2 0.4,-0.4 -2.2,-0.5 -4.3,-0.5 -6.5,-0.9 -16.2,-4.6 -37.8,-12.7 -47.8,-40 -0.6,-1.6 0,-2.4 1.7,-2.1 13.3,1 18.1,0.3 22.7,-0.7 -2.6,-0.5 -5.2,-1.3 -7.7,-2.4 -20.4,-7.8 -35.3,-27.6 -38,-49.1 -0.3,-2.3 -0.5,-4.6 -0.4,-6.9 0.1,-1.6 0.8,-2.1 2.2,-1.2 10.5,5.4 22.2,6.7 23.2,6.5 -2.6,-2 -5,-4.3 -7.4,-6.5 -17.7,-16.8 -24.5,-50.8 -10.4,-72 1.1,-1.7 1.9,-1.7 3.3,-0.1 32.3,36.8 72.1,54 120.1,61.2 1.3,0.2 1.4,0 1.2,-1.4 -1.2,-8.5 -1.4,-16.7 0.6,-25.1 2.2,-8.7 6.2,-16.8 11.9,-23.8 5.5,-6.7 12.2,-12.2 19.9,-16.2 7.6,-4 16,-6.4 24.6,-7 8.9,-0.6 17.8,0.8 26,4.2 6.2,2.5 11.9,6 16.9,10.4 1.1,1 2.1,2 3,3.1 0.6,0.7 1.6,0.9 2.4,0.6 12.2,-3 23.9,-7.5 35,-13.4 0.5,-0.3 1,-0.4 1.6,-0.1 0.5,0.4 0.3,1 0.1,1.5 -2.1,6.5 -5.4,12.6 -9.8,17.8 -2.8,3.5 -9.8,12 -14.5,12.9 10,-1.7 20.2,-4.2 29.4,-8.4 1.5,-0.5 1.4,-0.7 1.4,0.1 z"
   id="path6"
   style="fill:#ffffff;fill-opacity:1" />
</g>
</svg>
